<svg xmlns="http://www.w3.org/2000/svg" width="520" height="520">
    <defs>
        <filter id="Path-2" x="103.792" y="246.129" width="149.096" height="151.151" filterUnits="userSpaceOnUse">
            <feOffset dy="3"/>
            <feGaussianBlur stdDeviation="3" result="blur"/>
            <feFlood flood-opacity=".051"/>
            <feComposite operator="in" in2="blur"/>
            <feComposite in="SourceGraphic"/>
        </filter>
        <filter id="Path-3" x="58.505" y="151.9" width="170.932" height="142.753" filterUnits="userSpaceOnUse">
            <feOffset dy="3"/>
            <feGaussianBlur stdDeviation="3" result="blur-2"/>
            <feFlood flood-opacity=".051"/>
            <feComposite operator="in" in2="blur-2"/>
            <feComposite in="SourceGraphic"/>
        </filter>
        <clipPath id="clip-path">
            <path id="Path" class="cls-1" d="M167.037 258.632c-15.621 5.752-32.145 10.51-49.091 9.655-24.916-1.254-49.012-15.571-61-36.279-10.164-17.545-11.665-37.968-16.205-57.348-5.587-23.873-16-46.636-27.083-68.9C7.7 93.793 1.427 81.57.3 68.53c-1.562-18.1 7.447-36 21.8-47.838S55.63 2.769 74.954 1.646c10.283-.6 21.048.231 30.251 4.83 9.737 4.867 16.9 13.52 26.678 18.319 9.058 4.448 19.594 5.2 29.691 4.769a138.662 138.662 0 0 0 38.581-7.164c14.056-4.763 27.092-11.763 41.1-16.6s29.729-7.426 44.187-3.04c13.588 4.126 24.405 13.84 34.173 23.651a427.839 427.839 0 0 1 43.877 51.606c8.861 12.29 17.129 25.242 21.165 39.48 7.72 27.224-1.986 57.689-24.178 75.911-18.387 15.1-10.71 118.277-35.082 121.99-22.225 3.386-80.467-47.131-100.842-37.8-19.428 8.91-37.119-26.482-57.518-18.966z" transform="rotate(-135 239.565 192.09)"/>
        </clipPath>
        <style>
            .cls-1{fill:#f5f7fa}.cls-3{fill:#e0e6ed}.cls-7{fill:#60dfa0}.cls-9{fill:#3c4858}.cls-10{fill:#f6bac2}.cls-12{fill:#8492a6}.cls-13{fill:#f1b282}.cls-15{fill:#0b224e}
        </style>
    </defs>
    <g id="img_errors" transform="translate(-376 -133)">
        <path id="Rectangle_7946" data-name="Rectangle 7946" transform="translate(376 133)" style="fill:#fff" d="M0 0h520v520H0z"/>
        <path id="Path-4" data-name="Path" class="cls-1" d="M167.037 258.632c-15.621 5.752-32.145 10.51-49.091 9.655-24.916-1.254-49.012-15.571-61-36.279-10.164-17.545-11.665-37.968-16.205-57.348-5.587-23.873-16-46.636-27.083-68.9C7.7 93.793 1.427 81.57.3 68.53c-1.562-18.1 7.447-36 21.8-47.838S55.63 2.769 74.954 1.646c10.283-.6 21.048.231 30.251 4.83 9.737 4.867 16.9 13.52 26.678 18.319 9.058 4.448 19.594 5.2 29.691 4.769a138.662 138.662 0 0 0 38.581-7.164c14.056-4.763 27.092-11.763 41.1-16.6s29.729-7.426 44.187-3.04c13.588 4.126 24.405 13.84 34.173 23.651a427.839 427.839 0 0 1 43.877 51.606c8.861 12.29 17.129 25.242 21.165 39.48 7.72 27.224-1.986 57.689-24.178 75.911-18.387 15.1-43.251 21.421-67.623 25.133-22.225 3.386-47.977 3.266-68.351 12.6-19.429 8.907-37.069 19.975-57.468 27.491z" transform="rotate(-135 465.98 182.966)"/>
        <path id="Path-5" data-name="Path" class="cls-3" d="m.026 66.265 1.743-11.457 1.6-10.492.446-2.927.243-6.251L5.34 1.986A2.018 2.018 0 0 1 6.2.43 2.351 2.351 0 0 1 8.043.054l14.715 3.093 37.336 7.846 21.211 4.46L80.9 45.8l-.119 8.89-.139 10.4-.142 10.7a136.939 136.939 0 0 1-16.163-.882c-15.424-1.48-36.452-4.449-50.2-6.491C5.715 67.166.026 66.265.026 66.265z" transform="rotate(-174 394.68 253.893)"/>
        <path id="Path-6" data-name="Path" d="m.052 66.2 1.715-11.448 1.572-10.48.439-2.923.229-6.249 1.2-33.121A2 2 0 0 1 6.07.429 2.349 2.349 0 0 1 7.912.058l14.734 3.128 37.386 7.934 21.239 4.51-.332 30.325-.1 8.882-.114 10.39-.116 10.687a137.378 137.378 0 0 1-16.179-.922c-15.44-1.518-36.492-4.537-50.257-6.613C5.747 67.11.052 66.2.052 66.2z" transform="rotate(12.04 -2045.034 3585.999)" style="fill:#b2c0d0"/>
        <path id="Path-7" data-name="Path" d="m.019 10.078 2.312 13.606L4.45 36.145l.592 3.476.406 7.411 2.144 39.3a2.466 2.466 0 0 0 1.072 1.86 2.943 2.943 0 0 0 2.235.479l17.754-3.4L73.7 76.655l25.592-4.9-1.033-35.967-.3-10.535L97.6 12.93 97.241.255a168.575 168.575 0 0 0-19.541.751C59.055 2.48 33.658 5.615 17.055 7.785 6.888 9.114.019 10.078.019 10.078z" transform="rotate(-140 474.899 149.984)" style="fill:#c0ccda"/>
        <ellipse id="Oval" class="cls-1" cx="10.853" cy="11.129" rx="10.853" ry="11.129" transform="translate(561.382 558.551)"/>
        <ellipse id="Oval-2" data-name="Oval" class="cls-1" cx="12.154" cy="12.464" rx="12.154" ry="12.464" transform="translate(501.682 483.714)"/>
        <ellipse id="Oval-3" data-name="Oval" class="cls-1" cx="24.471" cy="25.094" rx="24.471" ry="25.094" transform="translate(520.283 506.307)"/>
        <ellipse id="Oval-4" data-name="Oval" class="cls-1" cx="7.881" cy="8.082" rx="7.881" ry="8.082" transform="translate(656.662 293.411)"/>
        <g id="Mask_Group_288" data-name="Mask Group 288" transform="translate(392.965 144.527)" style="clip-path:url(#clip-path)">
            <g id="plant_8_" transform="rotate(120 43.385 223.956)">
                <path id="Path-8" data-name="Path" class="cls-7" d="M133.837-.223S77.825 109.742 1.344 57.965C-6.03 49.546 16.9 46.431 27 48.537c13.073 2.725 12.522-13.444 27.423-11.844C72.7 38.656 73.7 28.277 83.178 15.608 90 6.494 118.617 13.623 133.837-.223z" transform="translate(28.136 -.047)"/>
                <g transform="matrix(-.5 -.87 .87 -.5 -130.37 393.96)" style="filter:url(#Path-2)">
                    <path id="Path-9" data-name="Path" d="M100.745-.19S71.68 116.2 1.364 79.718c-5.973-3.675 6.983-12.23 17.728-11.646s9.771-16.2 18.886-24.31c10.122-9 25.972-5.572 31.157-20.462 3.73-10.717 21.294-5.74 31.61-23.49z" transform="matrix(-.63 .78 -.78 -.63 243.65 306.87)" style="fill:#7be6b1"/>
                </g>
            </g>
            <g id="woman_5_" transform="translate(50.539 86.681)">
                <path id="Path-10" data-name="Path" class="cls-9" d="M42.605 0c9.373 0 25.131 5.881 26.232 32.141-.2 22.032-17.554 25.266-16.175 52.96 1.049 21.03 23.229 49.413 28.6 69.737 10.256 38.809-68.621 48.49-69.822 13.34-.789-23.044 7.745-30.007 7.139-50.939S0 75.205 0 41.639C0 6.924 24.289 0 42.605 0z" transform="translate(122.9)"/>
                <g id="Group" transform="translate(114.115 10.247)">
                    <path id="Path-11" data-name="Path" class="cls-10" d="M54.22 2.149C25.676-8.995 27.99 26.282 21.382 37.5S0 63.243 0 63.243l25.306 18.431s5.862-8.863 8.1-13.889 6.952-5.543 12.709-2.14c3.46 2.046 14.731-5.225 21.074-14.228 3.928-5.574 3.456-12.116 5.373-16.774C77.367 22.966 67.768 7.437 54.22 2.149z"/>
                    <path id="Path-12" data-name="Path" class="cls-10" d="M7.5 8.468C4.642 7.064 2.079 6.737.018 7.547L0 0c2.134 3.6 5.755 7.44 7.5 8.468z" transform="translate(37.11 56.368)"/>
                </g>
                <path id="Path-13" data-name="Path" d="M0 8.3s12.214 15.467 24.684 32.005c14.932 19.806 28.811 31.765 35.66 45.011 1.617 3.126-5.173 14.2-1.69 19.453s20.461 12.564 23.674 1.559c2.2-7.538 5.983-16.487-1.669-24.084-2.82-2.8-16.95-23.913-24.686-34.517s-26.932-46.2-26.932-46.2S9.446-4.8 0 8.3z" transform="translate(116.691 124.237)" style="fill:#c98a95"/>
                <path id="Path-14" data-name="Path" class="cls-12" d="M5.392 79.156-.474 5.862A2.788 2.788 0 0 1 .2 4.05a1.385 1.385 0 0 1 1.439-.442h16.592l29.148 9 16.559 5.118L63.56 53l-.111 10.331-.13 12.085-.133 12.43c-2.739.18-7.282-3.74-12.661-4.489-12.045-1.671-28.425-1.542-39.162-3.873-6.574-1.427-5.971-.328-5.971-.328z" transform="translate(171.29 219.055)"/>
                <path id="Path-15" data-name="Path" class="cls-9" d="M39.213.454C10.675-4.107-1.867 26.7.224 47c2.941 4.148 16.524-.671 18.455-6.239s-6.909-14.809 3.134-11.155C27 31.494 25.9 35 31.2 37.981s22.03 2.044 25.861-10.057S50.508 2.26 39.213.454z" transform="translate(130.734 1.476)"/>
                <path id="Path-16" data-name="Path" class="cls-13" d="M19.058 31.624c-.648-6.732.2-9.125 1.186-9.945l.406-.29 9.123-6.531L18.237 0 7.833 8.482c-.4.329-9.576 1.855-7.538 6.6s20.247 32.011 18.763 16.542z" transform="translate(25.973 283.163)"/>
                <path id="Path-17" data-name="Path" class="cls-3" d="m0 88.2 2.139-15.252 4.476-70.3A2.779 2.779 0 0 1 7.661.572 2.637 2.637 0 0 1 9.884.066l17.754 4.065L72.685 14.44l25.592 5.86-.586 40.388-.171 11.83-.2 13.838-.205 14.233A149.989 149.989 0 0 1 77.6 99.473c-18.615-1.916-43.99-5.791-60.581-8.46A1808.26 1808.26 0 0 1 0 88.2z" transform="translate(176.672 210.116)"/>
                <path id="Path-18" data-name="Path" class="cls-13" d="M26.581 19.03c-5.543-3.671-6.842-5.844-6.856-7.141l.032-.507L20.45 0H1.922v13.625c0 .528-4.546 8.835.344 10.153S39.32 27.47 26.581 19.03z" transform="translate(66.525 358.856)"/>
                <path id="Path-19" data-name="Path" class="cls-9" d="M19.65.04S0 .654 0 26.425c0 24.222 33.239 55.2 59.623 94.779-6.4 36.8 5.819 94.282 5.819 94.282h19.581S96.791 144.84 95.2 115.615C93.457 83.467 74.378 48.38 63.912 23.3 57.592 8.155 33.239-.668 19.65.04z" transform="translate(2.613 143.323)"/>
                <g transform="translate(-67.5 -98.21)" style="filter:url(#Path-3)">
                    <path id="Path-20" data-name="Path" class="cls-12" d="M59.012 46.887c21.615-38.8 57.33-55.661 76.681-42.436 21.419 14.641 19.864 43.011 11.5 59.47-2.923 5.753-6.681 10.048-10.582 11.8-6.608 2.958-14.631 2.379-22.7 3.844-9.182 1.657-18.43 5.958-25.73 21.116-16.163 33.531-31.227 26.019-36.029 13.361C44.493 93.858 0 99.275 0 85.208s40.368-4.846 59.012-38.321z" transform="translate(67.5 157.9)"/>
                </g>
                <path id="Path-21" data-name="Path" d="M36.185 24.192C33.262 29.945 29.5 34.239 25.6 35.99c-6.6 2.958-14.628 2.378-22.7 3.843C-4.478 27.587 4.544.388 4.544.388 19.15-2.5 29.659 11.2 36.185 24.192z" transform="translate(111.004 99.422)" style="fill:#6b798e"/>
                <path id="Path-22" data-name="Path" class="cls-10" d="M0 10.98s14.059 13.725 28.5 28.479c17.3 17.667 32.569 27.694 41.026 39.924 2 2.886-3.345 14.768.773 19.513s21.873 9.758 23.674-1.582c1.234-7.765 3.86-17.142-4.686-23.663-3.151-2.4-19.816-21.476-28.822-30.97S27.949.43 27.949.43 7.718-3.26 0 10.98z" transform="translate(129.261 122.586)"/>
                <path id="Path-23" data-name="Path" class="cls-12" d="M26.764.418C39.8 4.465 39.949 36.26 44.849 42.94S20.605 63.762 17.842 61.224C11.369 55.275-.068 36.612 0 23.6S17.283-2.524 26.764.418z" transform="translate(113.904 77.706)"/>
                <path id="Path-24" data-name="Path" class="cls-15" d="M29.336 14.6c1.021 1.379-1.562 7.524.223 16.84 1.448 7.559 13.744 8.781 11.25 14.651-2.328 5.479-20.425 3.2-27.037-4.956C13.3 40.546 4.5 22.65.557 14.623a5.44 5.44 0 0 1 1.35-6.54L11.089.37A1.568 1.568 0 0 1 12.66.1a1.621 1.621 0 0 1 1.01 1.259c.424 2.631 1.338 6.515 3.242 9.2 3.135 4.42 11.403 2.658 12.424 4.041z" transform="translate(18.579 291.072)"/>
                <path id="Path-25" data-name="Path" class="cls-15" d="M21.332.871a2.909 2.909 0 0 1 3.8-.306c3.746 2.729 11.163 8.129 11.259 8.171 4.706 2.1 17.376 5.671 17.116 10.615-.333 6.344-35.122 4.206-48.681 2.785C2.074 21.85-.108 17.863 0 15.031l.449-11.47A1.637 1.637 0 0 1 1.3 2.177a1.57 1.57 0 0 1 1.6.063c2.2 1.428 5.654 3.312 8.887 3.636 3.571.362 7.413-2.853 9.545-5.005z" transform="translate(64.688 369.037)"/>
            </g>
        </g>
        <path id="icon_comment_xxl" class="cls-7" d="M4.279 42.862c-1.124 0-2.665-.267-3.306-1.021C.136 40.858 0 38.687 0 33.871V14.978c0-4.7-.006-7.053.972-9A13.179 13.179 0 0 1 5.829 1c1.846-.958 3.949-1 8.153-1h15.753c4.2 0 6.307.042 8.153 1a13.187 13.187 0 0 1 4.857 4.981c.977 1.947.976 4.3.972 9V19.893c0 4.7.006 7.053-.972 9-.879 1.749-2.854 2.948-4.857 3.984-1.848.955-3.956 1-8.171 1H18.458c-.389 0-.881-.029-1.4-.059-.539-.032-1.1-.064-1.55-.064a2.116 2.116 0 0 0-.934.123 22.107 22.107 0 0 0-2.157 2.175c-.281.3-.545.59-.757.814l-1.945 1.986c-.316.332-.6.637-.869.917-2.313 2.445-2.795 2.954-3.985 3.064-.183.02-.378.029-.582.029zm16.145-19.069c-.465 0-.789.929-.789 2.259s.324 2.259.789 2.259h2.761c.465 0 .789-.929.789-2.259s-.324-2.259-.789-2.259zM21.8 5.9c-1.3 0-2.2 1.122-2.2 2.727v9.543c0 1.606.906 2.727 2.2 2.727a1.983 1.983 0 0 0 1.591-.758 3.091 3.091 0 0 0 .612-1.97V8.624a3.091 3.091 0 0 0-.612-1.97A1.983 1.983 0 0 0 21.8 5.9z" transform="translate(643.534 204.429)"/>
        <path id="Path-26" data-name="Path" class="cls-3" d="m0 90.727 5.188-15.174C7.809 34.2 23.58 32.415 42.666 29.675c12.418-1.783 18-12.527 52.424-4.647l-.567 39.079-.166 11.446-.194 13.389-.2 13.772a145.118 145.118 0 0 1-18.877-1.08c-18.011-1.854-42.563-5.6-58.616-8.186C6.642 91.867 0 90.727 0 90.727z" transform="translate(620.436 438.806)"/>
        <g id="Group_71749" data-name="Group 71749" transform="translate(382.361 285.247)">
            <path id="Path_896" data-name="Path 896" class="cls-1" d="m5.086 51.424 26.608 6.42a6.645 6.645 0 0 0 8.2-6.459V12.354a6.645 6.645 0 0 0-5.251-6.5L8.038.15A6.645 6.645 0 0 0 0 6.647v38.318a6.645 6.645 0 0 0 5.086 6.459z" transform="rotate(8 19.485 278.648)"/>
            <path id="Path_20057" data-name="Path 20057" class="cls-1" d="m3.092 31.264 16.177 3.9a4.04 4.04 0 0 0 4.987-3.927V7.511a4.04 4.04 0 0 0-3.193-3.95L4.887.091A4.04 4.04 0 0 0 0 4.041v23.3a4.04 4.04 0 0 0 3.092 3.923z" transform="rotate(8 -26.304 37.12)"/>
        </g>
    </g>
</svg>
